<?xml version="1.0" standalone="no"?>
<!DOCTYPE svg PUBLIC "-//W3C//DTD SVG 20010904//EN"
 "http://www.w3.org/TR/2001/REC-SVG-20010904/DTD/svg10.dtd">
<svg version="1.0" xmlns="http://www.w3.org/2000/svg"
 width="380.000000pt" height="380.000000pt" viewBox="0 0 380.000000 380.000000"
 preserveAspectRatio="xMidYMid meet">
<metadata>
Created by potrace 1.14, written by Peter Selinger 2001-2017
</metadata>
<g transform="translate(0.000000,380.000000) scale(0.100000,-0.100000)"
fill="#000000" stroke="none">
<path d="M1116 3784 c-22 -8 -47 -20 -55 -27 -9 -8 -69 -40 -134 -71 -65 -32
-123 -64 -130 -70 -7 -7 -33 -26 -57 -41 -82 -52 -99 -97 -76 -208 35 -169 49
-211 121 -361 112 -234 137 -301 166 -451 26 -137 13 -502 -22 -603 -32 -93
-102 -197 -218 -322 -65 -70 -75 -101 -38 -124 12 -8 103 -52 202 -97 164 -76
268 -127 427 -211 72 -38 100 -33 128 22 11 22 18 40 14 40 -4 0 -2 6 3 13 6
6 43 94 83 195 82 207 82 216 2 192 -72 -22 -138 -18 -206 15 -48 23 -212 111
-224 121 -7 5 21 50 98 159 121 171 216 365 255 520 26 103 22 158 -14 237
-17 36 -33 80 -36 97 -9 51 -34 121 -80 217 l-42 91 57 69 c74 89 107 119 155
143 l39 19 67 -50 c37 -27 79 -62 93 -79 l25 -30 -2 -1443 -2 -1444 38 -54
c39 -57 53 -71 174 -175 78 -67 99 -77 131 -66 29 11 262 325 262 353 0 4 -14
23 -31 41 -52 58 -58 73 -64 149 -3 41 -8 95 -10 120 -4 42 -11 218 -20 470
-20 565 -42 2163 -30 2200 7 21 12 22 59 17 96 -10 322 -83 370 -119 18 -14
17 -17 -18 -63 -20 -26 -51 -77 -69 -114 l-32 -66 -3 -935 c-3 -989 -4 -961
44 -1026 25 -34 152 -136 246 -198 57 -38 57 -38 87 -20 16 9 37 34 47 55 9
21 37 60 63 86 25 26 64 75 86 108 23 33 55 80 73 105 18 25 34 55 37 67 5 28
-32 59 -89 73 -22 6 -54 16 -70 22 -31 13 -85 64 -87 82 0 6 -2 108 -4 226 -1
118 -6 253 -10 299 -3 46 -8 129 -10 185 -26 760 -26 943 -1 1016 29 86 72
168 128 242 38 52 51 79 52 106 l1 36 -110 38 c-179 62 -296 109 -367 149 -37
20 -83 43 -102 50 l-36 13 -103 -102 c-190 -188 -172 -185 -339 -71 -73 49
-158 110 -188 134 -30 24 -66 44 -79 45 -38 0 -101 -55 -422 -372 -60 -60
-114 -108 -121 -108 -7 0 -24 15 -38 33 -96 121 -82 265 32 338 64 41 72 57
48 97 -23 37 -57 41 -124 16z"/>
</g>
</svg>
